<svg xmlns="http://www.w3.org/2000/svg" width="500" height="179" viewBox="0 0 500 179" version="1.1">
	<path d="M 202.763 25.565 C 197.663 28.332, 197 31.203, 197 50.500 C 197 70.068, 197.662 72.789, 202.959 74.983 C 207.830 77.001, 211.189 75.650, 229.338 64.377 C 238.748 58.532, 247.370 53.750, 248.498 53.750 C 249.626 53.750, 258.135 58.554, 267.408 64.427 C 285.355 75.793, 288.229 76.976, 293.041 74.983 C 298.363 72.779, 299 70.109, 299 50 C 299 26.948, 297.778 24, 288.224 24 C 285.008 24, 281.418 25.804, 267.925 34.200 C 256.423 41.357, 250.632 44.392, 248.516 44.372 C 246.430 44.353, 240.602 41.209, 229.611 34.172 C 212.505 23.221, 209.097 22.128, 202.763 25.565 M 440.333 96.122 C 432.071 98.450, 429.253 108.802, 435.076 115.434 C 438.914 119.805, 443.413 120.847, 448.344 118.507 C 461.889 112.079, 454.727 92.067, 440.333 96.122 M 439.213 98.468 C 435.479 100.134, 432.500 105.871, 433.434 109.595 C 435.505 117.844, 445.507 120.474, 451.082 114.234 C 458.589 105.832, 449.566 93.846, 439.213 98.468 M 211 101.954 C 204.477 104.194, 198.023 110.644, 196.193 116.749 C 188.925 141.008, 217.491 159.020, 235.750 141.692 C 241.262 136.461, 239.153 134.903, 233.399 139.955 C 226.131 146.336, 215.990 146.256, 209.269 139.765 C 200.869 131.652, 202.106 111.806, 211.367 106.082 C 219.983 100.757, 229.982 103.267, 234.190 111.810 L 236.500 116.500 236.796 109.130 C 237.098 101.628, 236.568 99.462, 235.039 101.937 C 234.321 103.099, 233.256 103.055, 228.278 101.658 C 220.793 99.558, 217.830 99.609, 211 101.954 M 342.500 101.052 C 341.400 101.556, 339.150 102.489, 337.500 103.125 L 334.500 104.281 337 104.935 L 339.500 105.589 339.771 125.251 L 340.042 144.914 337.271 146.417 C 334.632 147.848, 334.930 147.920, 343.500 147.921 C 352.119 147.922, 352.363 147.862, 349.250 146.509 L 346 145.097 346 122.548 C 346 110.147, 345.663 100.030, 345.250 100.068 C 344.837 100.105, 343.600 100.548, 342.500 101.052 M 438.500 107.232 L 438.500 114 441.450 114 C 443.744 114, 444.133 113.733, 443.200 112.800 C 442.540 112.140, 442.012 110.678, 442.027 109.550 C 442.050 107.771, 442.414 107.931, 444.777 110.759 C 446.275 112.551, 448.063 114.014, 448.750 114.009 C 450.550 113.996, 450.297 112.945, 447.876 110.367 C 445.915 108.280, 445.876 107.981, 447.376 106.482 C 450.489 103.368, 448.711 101.063, 442.936 100.725 L 438.500 100.465 438.500 107.232 M 47 102.306 L 50.500 103.500 50.500 124.500 L 50.500 145.500 47 146.694 C 43.783 147.791, 44.227 147.889, 52.500 147.904 C 60.912 147.921, 61.297 147.834, 58.400 146.572 C 56.694 145.830, 55.007 144.461, 54.650 143.529 C 53.677 140.995, 53.865 109.449, 54.846 110.550 C 55.312 111.072, 59.249 119.697, 63.596 129.717 C 67.943 139.736, 71.742 147.948, 72.037 147.967 C 72.333 147.985, 76.494 139.337, 81.284 128.750 L 89.992 109.500 89.746 127.500 L 89.500 145.500 86 146.694 C 82.896 147.752, 83.802 147.887, 94 147.887 C 104.198 147.887, 105.104 147.752, 102 146.694 L 98.500 145.500 98.230 124.710 L 97.959 103.921 101.230 102.473 C 104.424 101.059, 104.330 101.031, 97.206 101.263 L 89.912 101.500 82.583 117.807 C 78.552 126.776, 74.952 134.201, 74.583 134.307 C 74.214 134.413, 70.487 126.963, 66.302 117.750 L 58.692 101 51.096 101.056 C 43.890 101.110, 43.680 101.174, 47 102.306 M 442 104 C 442 105.111, 442.667 106, 443.500 106 C 444.333 106, 445 105.111, 445 104 C 445 102.889, 444.333 102, 443.500 102 C 442.667 102, 442 102.889, 442 104 M 115.011 116.695 C 110.948 118.797, 108.962 123.045, 110.933 125.419 C 112.898 127.787, 116 125.659, 116 121.943 C 116 117.805, 119.806 115.988, 123.459 118.381 C 125.431 119.673, 126 120.884, 126 123.788 C 126 127.378, 125.795 127.603, 120.980 129.314 C 109.794 133.286, 105.278 141.927, 111.734 147.006 C 114.933 149.522, 118.547 149.171, 123.142 145.899 C 124.777 144.735, 126.202 143.943, 126.308 144.141 C 129.325 149.772, 130.761 150.090, 135.170 146.105 L 138.500 143.094 135.500 143.297 L 132.500 143.500 132.220 131.378 C 131.977 120.821, 131.688 119.027, 129.980 117.482 C 127.112 114.887, 119.300 114.476, 115.011 116.695 M 144.535 115.801 C 138.362 116.067, 137.841 116.238, 139.952 117.301 C 141.262 117.960, 144.250 121.584, 146.591 125.353 L 150.849 132.206 147.287 137.353 C 145.328 140.184, 142.342 143.738, 140.651 145.250 L 137.576 148 143.538 147.970 C 148.076 147.946, 149.082 147.696, 147.750 146.920 C 145.346 145.520, 145.522 144.555, 149.137 139.301 L 152.274 134.741 155.610 140.030 C 158.702 144.934, 158.819 145.415, 157.222 146.628 C 155.755 147.743, 156.608 147.939, 163 147.957 L 170.500 147.978 167.388 145.524 C 165.677 144.175, 162.594 140.248, 160.539 136.797 L 156.802 130.524 158.651 127.057 C 159.668 125.150, 162.188 121.809, 164.250 119.632 C 166.313 117.455, 168 115.635, 168 115.587 C 168 115.539, 165.750 115.500, 163 115.500 C 157.538 115.500, 157.202 115.696, 159.627 117.469 C 161.097 118.544, 160.988 119.062, 158.494 122.829 C 155.164 127.862, 155.080 127.871, 152.250 123.502 C 149.548 119.330, 149.394 117.267, 151.750 116.800 C 155.370 116.083, 151.244 115.511, 144.535 115.801 M 249.011 116.695 C 244.948 118.797, 242.962 123.045, 244.933 125.419 C 246.898 127.787, 250 125.659, 250 121.943 C 250 117.805, 253.806 115.988, 257.459 118.381 C 260.257 120.214, 261.299 127.990, 258.750 128.010 C 256.585 128.027, 247.263 132.737, 245.086 134.914 C 241.896 138.104, 242.225 144.245, 245.734 147.006 C 248.933 149.522, 252.547 149.171, 257.142 145.899 C 258.777 144.735, 260.202 143.943, 260.308 144.141 C 263.325 149.772, 264.761 150.090, 269.170 146.105 L 272.500 143.094 269.500 143.297 L 266.500 143.500 266 131.281 C 265.419 117.092, 264.799 115.949, 257.325 115.305 C 253.963 115.015, 251.442 115.437, 249.011 116.695 M 277.500 116 C 272.643 116.347, 271.142 116.735, 272.598 117.269 C 275.016 118.155, 275.011 118.146, 281.976 135.837 C 284.863 143.172, 287.552 148.797, 287.951 148.337 C 288.350 147.877, 291.258 140.866, 294.412 132.759 C 297.566 124.651, 300.866 117.615, 301.745 117.123 C 302.904 116.474, 302.036 116.125, 298.585 115.850 C 295.968 115.642, 293.614 115.816, 293.354 116.236 C 293.094 116.656, 293.584 117, 294.441 117 C 295.298 117, 296 117.666, 296 118.479 C 296 120.364, 289.733 137.003, 289.028 136.990 C 288.738 136.985, 286.961 132.872, 285.080 127.851 C 281.799 119.094, 281.735 118.667, 283.507 117.371 C 286.022 115.533, 285.550 115.425, 277.500 116 M 311.011 116.695 C 306.948 118.797, 304.962 123.045, 306.933 125.419 C 308.898 127.787, 312 125.659, 312 121.943 C 312 117.805, 315.806 115.988, 319.459 118.381 C 322.257 120.214, 323.299 127.990, 320.750 128.010 C 318.417 128.028, 309.298 132.763, 307.144 135.076 C 303.940 138.515, 304.223 144.244, 307.734 147.006 C 310.940 149.528, 314.895 149.150, 319.329 145.898 C 320.884 144.757, 322.234 143.976, 322.329 144.162 C 325.133 149.693, 326.796 150.058, 331.170 146.105 L 334.500 143.094 331.500 143.297 L 328.500 143.500 328.220 131.378 C 327.977 120.821, 327.688 119.027, 325.980 117.482 C 323.112 114.887, 315.300 114.476, 311.011 116.695 M 361.299 116.960 C 348.009 125.063, 354.946 151.296, 369.649 148.538 C 372.639 147.977, 380 141.250, 380 139.079 C 380 138.575, 380.315 137.339, 380.701 136.332 C 381.087 135.324, 379.581 136.412, 377.356 138.750 C 370.386 146.071, 362.011 143.155, 360.121 132.750 L 359.258 128 369.629 128 C 381.124 128, 381.417 127.788, 378.484 121.607 C 375.502 115.323, 367.522 113.165, 361.299 116.960 M 390.333 116.859 C 385.256 118.858, 383.962 120, 386.773 120 C 389.286 120, 389.668 122.645, 389.183 136.689 C 388.874 145.626, 388.792 145.905, 386.183 146.860 C 384.104 147.621, 385.638 147.840, 393 147.831 C 400.451 147.822, 401.812 147.621, 399.312 146.897 L 396.124 145.975 395.812 134.847 C 395.588 126.869, 395.870 123.193, 396.807 121.860 C 398.211 119.861, 401.490 119.366, 402.500 121 C 403.089 121.953, 407 122.458, 407 121.582 C 407 121.352, 407.251 120.510, 407.558 119.711 C 408.257 117.888, 405.466 115, 403.005 115 C 401.987 115, 399.710 116.214, 397.946 117.699 C 395.012 120.167, 394.796 120.217, 395.410 118.283 C 396.354 115.310, 395.134 114.968, 390.333 116.859 M 415.011 116.695 C 410.948 118.797, 408.962 123.045, 410.933 125.419 C 412.898 127.787, 416 125.659, 416 121.943 C 416 117.805, 419.806 115.988, 423.459 118.381 C 425.431 119.673, 426 120.884, 426 123.788 C 426 127.378, 425.795 127.603, 420.980 129.314 C 413.392 132.009, 409 136.304, 409 141.031 C 409 148.515, 416.354 151.013, 423.329 145.898 C 424.884 144.757, 426.234 143.976, 426.329 144.162 C 429.133 149.693, 430.796 150.058, 435.170 146.105 L 438.500 143.094 435.500 143.297 L 432.500 143.500 432.220 131.378 C 431.977 120.821, 431.688 119.027, 429.980 117.482 C 427.112 114.887, 419.300 114.476, 415.011 116.695 M 362 120 C 357.827 124.173, 359.263 126.131, 366.250 125.798 C 371.870 125.530, 372.466 125.298, 372.160 123.500 C 371.270 118.270, 365.662 116.338, 362 120 M 121.500 131.665 C 116.449 134.334, 115 136.120, 115 139.676 C 115 144.260, 118.335 145.912, 122.861 143.572 C 125.848 142.027, 126 141.660, 126 135.974 C 126 129.452, 125.889 129.346, 121.500 131.665 M 254.761 132.062 C 249.706 134.731, 247.656 137.965, 248.916 141.279 C 250.193 144.637, 253.184 145.473, 256.950 143.526 C 259.834 142.035, 260 141.623, 260 135.974 C 260 129.313, 259.987 129.303, 254.761 132.062 M 317.500 131.665 C 312.449 134.334, 311 136.120, 311 139.676 C 311 144.260, 314.335 145.912, 318.861 143.572 C 321.848 142.027, 322 141.660, 322 135.974 C 322 129.452, 321.889 129.346, 317.500 131.665 M 421.500 131.665 C 416.449 134.334, 415 136.120, 415 139.676 C 415 144.260, 418.335 145.912, 422.861 143.572 C 425.848 142.027, 426 141.660, 426 135.974 C 426 129.452, 425.889 129.346, 421.500 131.665" stroke="none" fill="#111111" fill-rule="evenodd"/>
</svg>