<svg xmlns="http://www.w3.org/2000/svg" width="500" height="179" viewBox="0 0 500 179"><g id="bowtie"><path d="M 202.763 25.565 C 197.663 28.332, 197 31.203, 197 50.500 C 197 73.338, 197.726 75, 207.699 75 C 211.723 75, 214.168 73.799, 229.341 64.375 C 238.749 58.531, 247.370 53.750, 248.498 53.750 C 249.626 53.750, 258.098 58.531, 267.326 64.375 C 282.037 73.691, 284.641 75, 288.470 75 C 298.290 75, 299 73.315, 299 50 C 299 26.948, 297.778 24, 288.224 24 C 285.008 24, 281.418 25.804, 267.925 34.200 C 256.423 41.357, 250.632 44.392, 248.516 44.372 C 246.430 44.353, 240.602 41.209, 229.611 34.172 C 215.944 25.423, 213.146 24.006, 209.611 24.040 C 207.350 24.062, 204.268 24.748, 202.763 25.565" fill="#111"/></g><g id="brandtext" transform="translate(0,75)"><path d="M 205.250 0.689 C 206.213 0.941, 207.787 0.941, 208.750 0.689 C 209.713 0.438, 208.925 0.232, 207 0.232 C 205.075 0.232, 204.287 0.438, 205.250 0.689 M 287.250 0.689 C 288.212 0.941, 289.788 0.941, 290.750 0.689 C 291.712 0.438, 290.925 0.232, 289 0.232 C 287.075 0.232, 286.288 0.438, 287.250 0.689 M 440.333 21.122 C 432.071 23.450, 429.253 33.802, 435.076 40.434 C 438.914 44.805, 443.413 45.847, 448.344 43.507 C 454.757 40.464, 457.385 33.721, 454.516 27.674 C 451.801 21.954, 446.338 19.430, 440.333 21.122 M 439.213 23.468 C 435.479 25.134, 432.500 30.871, 433.434 34.595 C 433.753 35.865, 435.097 38.164, 436.421 39.703 C 438.416 42.023, 439.623 42.500, 443.495 42.500 C 447.505 42.500, 448.576 42.039, 451.082 39.234 C 454.963 34.891, 455.023 30.155, 451.250 26.013 C 447.944 22.385, 443.665 21.480, 439.213 23.468 M 211 26.954 C 204.477 29.194, 198.023 35.644, 196.193 41.749 C 192.151 55.241, 199.421 68.705, 212.876 72.642 C 221.370 75.128, 228.934 73.160, 235.750 66.692 C 241.262 61.461, 239.153 59.903, 233.399 64.955 C 231.548 66.580, 228.187 68.463, 225.930 69.139 C 217.713 71.601, 207.573 66.276, 204.854 58.072 C 202.980 52.418, 203.525 42.614, 205.997 37.507 C 211.795 25.529, 228.431 25.118, 234.190 36.810 L 236.500 41.500 236.796 34.130 C 237.098 26.628, 236.568 24.462, 235.039 26.937 C 234.321 28.099, 233.256 28.055, 228.278 26.658 C 220.793 24.558, 217.830 24.609, 211 26.954 M 342.500 26.052 C 341.400 26.556, 339.150 27.489, 337.500 28.125 L 334.500 29.281 337 29.935 L 339.500 30.589 339.771 50.251 L 340.042 69.914 337.271 71.417 C 334.632 72.848, 334.930 72.920, 343.500 72.921 C 352.119 72.922, 352.363 72.862, 349.250 71.509 L 346 70.097 346 47.548 C 346 35.147, 345.663 25.030, 345.250 25.068 C 344.837 25.105, 343.600 25.548, 342.500 26.052 M 438.500 32.232 L 438.500 39 441.450 39 C 443.744 39, 444.133 38.733, 443.200 37.800 C 442.540 37.140, 442.012 35.678, 442.027 34.550 C 442.050 32.771, 442.414 32.931, 444.777 35.759 C 446.275 37.551, 448.063 39.014, 448.750 39.009 C 450.550 38.996, 450.297 37.945, 447.876 35.367 C 445.915 33.280, 445.876 32.981, 447.376 31.482 C 450.489 28.368, 448.711 26.063, 442.936 25.725 L 438.500 25.465 438.500 32.232 M 47 27.306 L 50.500 28.500 50.500 49.500 L 50.500 70.500 47 71.694 C 43.783 72.791, 44.227 72.889, 52.500 72.904 C 60.912 72.921, 61.297 72.834, 58.400 71.572 C 56.694 70.830, 55.007 69.461, 54.650 68.529 C 53.677 65.995, 53.865 34.449, 54.846 35.550 C 55.312 36.072, 59.249 44.697, 63.596 54.717 C 67.943 64.736, 71.742 72.948, 72.037 72.967 C 72.333 72.985, 76.494 64.337, 81.284 53.750 L 89.992 34.500 89.746 52.500 L 89.500 70.500 86 71.694 C 82.896 72.752, 83.802 72.887, 94 72.887 C 104.198 72.887, 105.104 72.752, 102 71.694 L 98.500 70.500 98.230 49.710 L 97.959 28.921 101.230 27.473 C 104.424 26.059, 104.330 26.031, 97.206 26.263 L 89.912 26.500 82.583 42.807 C 78.552 51.776, 74.952 59.201, 74.583 59.307 C 74.214 59.413, 70.487 51.963, 66.302 42.750 L 58.692 26 51.096 26.056 C 43.890 26.110, 43.680 26.174, 47 27.306 M 442 29 C 442 30.111, 442.667 31, 443.500 31 C 444.333 31, 445 30.111, 445 29 C 445 27.889, 444.333 27, 443.500 27 C 442.667 27, 442 27.889, 442 29 M 115.011 41.695 C 110.948 43.797, 108.962 48.045, 110.933 50.419 C 112.898 52.787, 116 50.659, 116 46.943 C 116 42.805, 119.806 40.988, 123.459 43.381 C 125.431 44.673, 126 45.884, 126 48.788 C 126 52.378, 125.795 52.603, 120.980 54.314 C 118.219 55.294, 114.394 57.471, 112.480 59.152 C 109.646 61.640, 109 62.917, 109 66.031 C 109 69.006, 109.607 70.332, 111.734 72.006 C 114.933 74.522, 118.547 74.171, 123.142 70.899 C 124.777 69.735, 126.202 68.943, 126.308 69.141 C 129.325 74.772, 130.761 75.090, 135.170 71.105 L 138.500 68.094 135.500 68.297 L 132.500 68.500 132.220 56.378 C 131.977 45.821, 131.688 44.027, 129.980 42.482 C 127.112 39.887, 119.300 39.476, 115.011 41.695 M 144.535 40.801 C 138.362 41.067, 137.841 41.238, 139.952 42.301 C 141.262 42.960, 144.250 46.584, 146.591 50.353 L 150.849 57.206 147.287 62.353 C 145.328 65.184, 142.342 68.737, 140.651 70.250 L 137.576 73 143.538 72.970 C 148.076 72.946, 149.082 72.696, 147.750 71.920 C 145.346 70.520, 145.522 69.555, 149.137 64.301 L 152.274 59.741 155.610 65.030 C 158.702 69.934, 158.819 70.415, 157.222 71.628 C 155.755 72.743, 156.608 72.939, 163 72.957 L 170.500 72.978 167.388 70.524 C 165.677 69.175, 162.594 65.248, 160.539 61.797 L 156.802 55.524 158.651 52.057 C 159.668 50.150, 162.188 46.809, 164.250 44.632 C 166.313 42.455, 168 40.635, 168 40.587 C 168 40.539, 165.750 40.500, 163 40.500 C 157.538 40.500, 157.202 40.696, 159.627 42.469 C 161.097 43.544, 160.988 44.062, 158.494 47.829 C 156.976 50.123, 155.457 51.994, 155.117 51.988 C 154.137 51.968, 150 45.177, 150 43.587 C 150 42.795, 150.787 41.991, 151.750 41.800 C 155.370 41.083, 151.244 40.511, 144.535 40.801 M 249.011 41.695 C 244.948 43.797, 242.962 48.045, 244.933 50.419 C 246.898 52.787, 250 50.659, 250 46.943 C 250 42.805, 253.806 40.988, 257.459 43.381 C 259.475 44.702, 260 45.867, 260 49.023 C 260 51.533, 259.539 53.004, 258.750 53.010 C 256.585 53.027, 247.263 57.737, 245.086 59.914 C 241.896 63.104, 242.225 69.245, 245.734 72.006 C 248.933 74.522, 252.547 74.171, 257.142 70.899 C 258.777 69.735, 260.202 68.943, 260.308 69.141 C 263.325 74.772, 264.761 75.090, 269.170 71.105 L 272.500 68.094 269.500 68.297 L 266.500 68.500 266 56.281 C 265.419 42.092, 264.799 40.949, 257.325 40.305 C 253.963 40.015, 251.442 40.437, 249.011 41.695 M 277.500 41 C 272.643 41.347, 271.142 41.735, 272.598 42.269 C 275.016 43.155, 275.011 43.146, 281.976 60.837 C 284.863 68.172, 287.552 73.797, 287.951 73.337 C 288.350 72.877, 291.258 65.866, 294.412 57.759 C 297.566 49.651, 300.866 42.615, 301.745 42.123 C 302.904 41.474, 302.036 41.125, 298.585 40.850 C 295.968 40.642, 293.614 40.816, 293.354 41.236 C 293.094 41.656, 293.584 42, 294.441 42 C 295.298 42, 296 42.666, 296 43.479 C 296 45.364, 289.733 62.003, 289.028 61.990 C 288.738 61.985, 286.961 57.872, 285.080 52.851 C 281.799 44.094, 281.735 43.667, 283.507 42.371 C 284.523 41.628, 285.162 40.904, 284.927 40.760 C 284.692 40.617, 281.350 40.725, 277.500 41 M 311.011 41.695 C 306.948 43.797, 304.962 48.045, 306.933 50.419 C 308.898 52.787, 312 50.659, 312 46.943 C 312 42.805, 315.806 40.988, 319.459 43.381 C 321.475 44.702, 322 45.867, 322 49.023 C 322 51.533, 321.539 53.004, 320.750 53.010 C 318.417 53.028, 309.298 57.763, 307.144 60.076 C 303.940 63.515, 304.223 69.244, 307.734 72.006 C 310.940 74.528, 314.895 74.150, 319.329 70.898 C 320.884 69.757, 322.234 68.976, 322.329 69.162 C 325.133 74.693, 326.796 75.058, 331.170 71.105 L 334.500 68.094 331.500 68.297 L 328.500 68.500 328.220 56.378 C 327.977 45.821, 327.688 44.027, 325.980 42.482 C 323.112 39.887, 315.300 39.476, 311.011 41.695 M 361.299 41.960 C 348.009 50.063, 354.946 76.296, 369.649 73.538 C 372.639 72.977, 380 66.250, 380 64.079 C 380 63.575, 380.315 62.339, 380.701 61.332 C 381.087 60.324, 379.581 61.413, 377.356 63.750 C 374.273 66.988, 372.562 68, 370.171 68 C 365.478 68, 361.188 63.625, 360.121 57.750 L 359.258 53 369.629 53 C 381.124 53, 381.417 52.788, 378.484 46.607 C 375.502 40.323, 367.522 38.165, 361.299 41.960 M 390.333 41.859 C 385.256 43.858, 383.962 45, 386.773 45 C 389.286 45, 389.668 47.645, 389.183 61.689 C 388.874 70.626, 388.792 70.905, 386.183 71.860 C 384.104 72.621, 385.638 72.840, 393 72.831 C 400.451 72.822, 401.812 72.621, 399.312 71.897 L 396.124 70.975 395.812 59.847 C 395.588 51.869, 395.870 48.193, 396.807 46.860 C 398.211 44.861, 401.490 44.366, 402.500 46 C 403.089 46.953, 407 47.458, 407 46.582 C 407 46.352, 407.251 45.510, 407.558 44.711 C 408.257 42.888, 405.466 40, 403.005 40 C 401.987 40, 399.710 41.214, 397.946 42.699 C 395.012 45.167, 394.796 45.217, 395.410 43.283 C 396.354 40.310, 395.134 39.968, 390.333 41.859 M 415.011 41.695 C 410.948 43.797, 408.962 48.045, 410.933 50.419 C 412.898 52.787, 416 50.659, 416 46.943 C 416 42.805, 419.806 40.988, 423.459 43.381 C 425.431 44.673, 426 45.884, 426 48.788 C 426 52.378, 425.795 52.603, 420.980 54.314 C 418.219 55.294, 414.394 57.471, 412.480 59.152 C 409.646 61.640, 409 62.917, 409 66.031 C 409 73.515, 416.354 76.013, 423.329 70.898 C 424.884 69.757, 426.234 68.976, 426.329 69.162 C 429.133 74.693, 430.796 75.058, 435.170 71.105 L 438.500 68.094 435.500 68.297 L 432.500 68.500 432.220 56.378 C 431.977 45.821, 431.688 44.027, 429.980 42.482 C 427.112 39.887, 419.300 39.476, 415.011 41.695 M 362 45 C 360.900 46.100, 360 47.921, 360 49.048 C 360 50.925, 360.521 51.071, 366.250 50.798 C 371.870 50.530, 372.466 50.298, 372.160 48.500 C 371.270 43.270, 365.662 41.338, 362 45 M 121.500 56.665 C 116.449 59.334, 115 61.120, 115 64.676 C 115 69.260, 118.335 70.912, 122.861 68.572 C 125.848 67.027, 126 66.660, 126 60.974 C 126 57.688, 125.662 55.018, 125.250 55.040 C 124.838 55.062, 123.150 55.793, 121.500 56.665 M 254.761 57.062 C 249.706 59.731, 247.656 62.965, 248.916 66.279 C 250.193 69.637, 253.184 70.473, 256.950 68.526 C 259.834 67.035, 260 66.623, 260 60.974 C 260 57.688, 259.663 55.020, 259.250 55.044 C 258.837 55.069, 256.818 55.977, 254.761 57.062 M 317.500 56.665 C 312.449 59.334, 311 61.120, 311 64.676 C 311 69.260, 314.335 70.912, 318.861 68.572 C 321.848 67.027, 322 66.660, 322 60.974 C 322 57.688, 321.663 55.018, 321.250 55.040 C 320.837 55.062, 319.150 55.793, 317.500 56.665 M 421.500 56.665 C 416.449 59.334, 415 61.120, 415 64.676 C 415 69.260, 418.335 70.912, 422.861 68.572 C 425.848 67.027, 426 66.660, 426 60.974 C 426 57.688, 425.663 55.018, 425.250 55.040 C 424.837 55.062, 423.150 55.793, 421.500 56.665" fill="#111"/></g></svg>